<?xml version="1.0" encoding="utf-8"?><!-- Uploaded to: SVG Repo, www.svgrepo.com, Generator: SVG Repo Mixer Tools -->
<svg version="1.1" id="Uploaded to svgrepo.com" xmlns="http://www.w3.org/2000/svg" xmlns:xlink="http://www.w3.org/1999/xlink" 
	 width="800px" height="800px" viewBox="0 0 32 32" xml:space="preserve">
<style type="text/css">
	.linesandangles_een{fill:#111918;}
</style>
<path class="linesandangles_een" d="M30,11H2v2h1v3h1v1c0,1.657,1.343,3,3,3h6c1.657,0,3-1.343,3-3v-4h1v4
	c0,1.657,1.343,3,3,3h6c1.657,0,3-1.343,3-3v-4h1V11z M9,13v1H5v-1H9z M14,17c0,0.551-0.449,1-1,1H7c-0.551,0-1-0.449-1-1v-1h5v-3h3
	V17z M27,17c0,0.551-0.449,1-1,1h-6c-0.551,0-1-0.449-1-1v-4h8V17z"/>
</svg>